/* XPM */
static char *result[] = {
/* columns rows colors chars-per-pixel */
"64 64 256 2 ",
"   c #2E253C",
".  c #302B44",
"X  c #251C2A",
"o  c #262036",
"O  c #41324A",
"+  c #272034",
"@  c #3C3050",
"#  c #201D2E",
"$  c #30263F",
"%  c #29243A",
"&  c #38304E",
"*  c #312943",
"=  c #241E32",
"-  c #211926",
";  c #29223A",
":  c #3E2F47",
">  c #12111C",
",  c #100E17",
"<  c #292035",
"1  c #14131E",
"2  c #322C46",
"3  c #322A46",
"4  c #0C0C13",
"5  c #3C3554",
"6  c #382D4A",
"7  c #2E2335",
"8  c #11101A",
"9  c #0D0D14",
"0  c #12101A",
"q  c #1D1829",
"w  c #2A2031",
"e  c #2A2238",
"r  c #3A2C42",
"t  c #2C243E",
"y  c #241E30",
"u  c #2D273F",
"i  c #342A48",
"p  c #100F18",
"a  c #1C1725",
"s  c #211A2B",
"d  c #0E0D14",
"f  c #1B1826",
"g  c #3F3658",
"h  c #35283C",
"j  c #2E2840",
"k  c #2D2234",
"l  c #221D30",
"z  c #3B3252",
"x  c #1C1621",
"c  c #322845",
"v  c #2C243A",
"b  c #3B2E4D",
"n  c #372A3F",
"m  c #261F32",
"M  c #251F34",
"N  c #1C1827",
"B  c #201A2A",
"V  c #281F2F",
"C  c #42324C",
"Z  c #33263A",
"A  c #13121D",
"S  c #2F263E",
"D  c #3C304E",
"F  c #3F3049",
"G  c #14111A",
"H  c #36283D",
"J  c #302437",
"K  c #0A0A0F",
"L  c #0C0B11",
"P  c #2F2437",
"I  c #322639",
"U  c #09090E",
"Y  c #372B47",
"T  c #272236",
"R  c #282138",
"E  c #282034",
"W  c #44334E",
"Q  c #181622",
"!  c #1E182A",
"~  c #1E1928",
"^  c #191624",
"/  c #181522",
"(  c #15141F",
")  c #332A48",
"_  c #261E2E",
"`  c #221A27",
"'  c #231E32",
"]  c #18131D",
"[  c #161422",
"{  c #181420",
"}  c #302742",
"|  c #2E2642",
" . c #403759",
".. c #3E3657",
"X. c #2E253D",
"o. c #0F0E18",
"O. c #221C30",
"+. c #36293E",
"@. c #221C2D",
"#. c #322742",
"$. c #1F1A27",
"%. c #221B2C",
"&. c #2E2640",
"*. c #242034",
"=. c #342A45",
"-. c #2C2233",
";. c #120F17",
":. c #33273B",
">. c #302538",
",. c #201E2F",
"<. c #3C2F4F",
"1. c #1F1A2C",
"2. c #382A41",
"3. c #0E0C12",
"4. c #271E2D",
"5. c #1A1523",
"6. c #312B45",
"7. c #312845",
"8. c #2E2942",
"9. c #1F1C2C",
"0. c #0E0E15",
"q. c #15131E",
"w. c #101019",
"e. c #171320",
"r. c #211C2F",
"t. c #201C2D",
"y. c #1C1A2A",
"u. c #0A090F",
"i. c #2B253C",
"p. c #08080C",
"a. c #15111C",
"s. c #2C233A",
"d. c #41385A",
"f. c #3E3151",
"g. c #211B2E",
"h. c #312740",
"j. c #2A233B",
"k. c #382A3F",
"l. c #352B4A",
"z. c #453550",
"x. c #1A1625",
"c. c #332D48",
"v. c #231C2E",
"b. c #221E30",
"n. c #08080D",
"m. c #0A0A10",
"M. c #0E0E16",
"N. c #0B0B11",
"B. c #0F0F18",
"V. c #09090D",
"C. c #171521",
"Z. c #101018",
"A. c #0B0B12",
"S. c #0B0A0F",
"D. c #211B29",
"F. c #1E1A2A",
"G. c #282239",
"H. c #342943",
"J. c #3E3556",
"K. c #221C2F",
"L. c #3B2F4E",
"P. c #362F4B",
"I. c #16121D",
"U. c #352A46",
"Y. c #161420",
"T. c #171420",
"R. c #292239",
"E. c #1A1725",
"W. c #0B0B10",
"Q. c #281F34",
"!. c #191524",
"~. c #382B49",
"^. c #09080D",
"/. c #191621",
"(. c #292136",
"). c #1A1624",
"_. c #241D2F",
"`. c #261D2C",
"'. c #151420",
"]. c #3B3251",
"[. c #0F0D15",
"{. c #0B0A11",
"}. c #0E0E17",
"|. c #161521",
" X c #1E1A2B",
".X c #1F1A2B",
"XX c #282338",
"oX c #1B1724",
"OX c #1E1B2B",
"+X c #1D1929",
"@X c #1D1A29",
"#X c #1E1A29",
"$X c #2B233D",
"%X c #231D30",
"&X c #231B28",
"*X c #3C3354",
"=X c #201B2C",
"-X c #241B29",
";X c #282237",
":X c #1B1625",
">X c #241D2C",
",X c #1C1728",
"<X c #171421",
"1X c #2B233B",
"2X c #30273F",
"3X c #2A2237",
"4X c #352D4A",
"5X c #392E4C",
"6X c #2C263E",
"7X c #231E31",
"8X c #232032",
"9X c #0A0A11",
"0X c #201824",
"qX c #2D253F",
"wX c #252235",
"eX c #29233A",
"rX c #3C2D45",
"tX c #2A2138",
"yX c #1A1622",
"uX c #44344F",
"iX c #34283B",
"pX c #131017",
"aX c #241D32",
"sX c #2A263C",
"dX c #1B1726",
"fX c #362F4C",
"gX c #11111A",
"hX c #3B3353",
"jX c #1B1520",
"kX c #312639",
"lX c #171622",
"zX c #231D2B",
"xX c #111019",
"cX c #1B1624",
"vX c #221E2F",
"bX c #221C2E",
"nX c #211D2F",
"mX c #342944",
"MX c #393150",
"NX c #393250",
"BX c #2A253C",
"VX c #352D48",
"CX c #382C49",
"ZX c #302A43",
"AX c #231F32",
"SX c #262033",
"DX c #322945",
"FX c #1D1926",
"GX c #1D1827",
"HX c #0F0E15",
"JX c #332C48",
"KX c #1B1827",
"LX c #1E1B2A",
"PX c #332947",
"IX c #1F1929",
"UX c #201B2D",
/* pixels */
"d.d.d.d.d.d.fXi.i.i.i.i.i.i.i.i.i.i.i.b.b.Y.4 w.R ; 0 p.p.n.8 x.x..Xg.g.g.g.t l.i aXg.g.g.g.g.g.g.g.g.x.x.p.p.w.w.BXc.c.d.d.d.d.",
"d.d.d.d.d.5 6Xi.i.i.i.i.i.i.i.i.i.i.i.T b.nXm.B.t.C.p.p.n.9 <Xx.x.g.g.g.g.qXl.l.R g.g.g.g.g.g.g.g.g.g.x.x.p.p.w.y.c.c.g d.d.d.d.",
"d.d.d.d. .* i.i.i.i.i.i.i.i.i.i.i.i.i.i.b.b.T.4 gXw.U n.9 w.> ).x.a g.g.qXl.l.qXg.g.g.g.g.g.g.g.g.g.g.x.x.p.p.A . c.P.d.d.d.d.d.",
"d.d.d.d.& i.i.i.i.i.i.i.i.i.i.i.i.i.i.i.T b.nX{.B.w.N.0.w.w.w.A x.x..XqXl.l.DXK.g.g.g.g.g.g.g.g.g.g.g.x.x.p.p.XXc.c.d.d.d.d.d.d.",
"d.d.d...6Xi.i.i.i.i.i.i.i.i.i.i.i.i.i.i.i.b.b./ A.w.w.w.w.w.w.w.e.x.M l.l.l.= g.g.g.g.g.g.g.g.g.g.g.g.x.x.p.A c.c.J.d.d.d.d.d.d.",
"d.d.d.6.i.i.i.i.i.i.i.i.i.i.i.i.i.i.i.i.i.XXb.,.L B.w.w.w.Y.D.w.w.r.j.j.l.; g.g.g.g.g.g.g.g.g.g.g.g.g.x.x.V.8.c.VXd.d.d.d.d.d.d.",
"d.d.MXi.i.i.i.i.i.i.i.i.i.i.i.i.i.i.i.i.i.i.b.b.^ N.w.w.w.7 h A w.1 R.j.R g.g.g.g.g.g.g.g.g.g.g.g.g.g.x.x.p.XXc.c.d.d.d.d.d.d.d.",
"d.g u i.i.i.i.i.i.i.i.i.i.i.i.i.i.i.i.i.i.i.M b.t.n.B.w.oXk.k.V 9 w.KXj. X1.g.g.g.g.g.g.g.g.g.g.g.q x.x.x.p.p c.c.g d.d.d.d.d.d.",
"d.JXi.i.i.i.i.i.i.i.i.i.i.i.i.i.i.i.i.i.i.% b.b.0 p.N.8 I k.k.n , B.w.r.R dXg.g.g.g.g.g.g.g.,Xx.x.x.x.x.e.p.p.% c.c.d.d.d.d.d.d.",
"hXi.i.i.i.i.i.i.i.i.i.i.i.i.i.i.i.i.i.i.i.b.b.KXp.p.V.D.k.k.k.k.-.A.w.gXo = x.g.g.g.1.,Xx.x.x.x.x.e., K p.p.p.|.c.c.J.d.d.d.d.d.",
"j i.i.i.i.i.i.i.i.i.i.i.i.i.i.i.i.i.i.i.o b.nXL p.p.p h k.rXz.k.k.] }.w.'.; UX,Xa x.x.x.x.x.q., u.p.p.p.p.p.K w.XXc.c.d.d.d.d.g ",
"i.i.i.i.i.i.i.i.i.i.i.i.i.i.i.i.i.i.i.i.b.b.A p.p.m.V k.k.z.z.r k.I L w.w.KXeXq x.x.).I.[.U p.p.p.p.n.K 4 B.w.w.'.c.c.5 d.d.d.JX",
"i.i.i.i.i.i.i.i.i.i.i.i.i.i.i.i.i.i.i.b.b.@Xn.p.n.q.+.k.F z.z.z.k.k.- 9 w.w.r.o I.d U p.p.p.p.n.m.9 B.w.w.C.(.C.w.wXc.c.d.d.z i.",
"i.i.i.i.i.i.i.i.i.i.i.i.i.i.i.i.i.i.T b.vX4 p.p.4 -.k.k.z.z.z.z.: k.>.L w.w.gXM.p.p.p.p.n.m.9 B.w.w.w.( SXh.h.(.w.( 2 c.*X .u i.",
"i.i.i.i.i.i.i.i.i.i.i.i.i.i.i.i.i.i.b.b.Y.p.p.K oXk.k.W z.z.z.z.z.n 4.jX4 w.w.w.m.n.m.9 B.w.w.w.w.A y 2Xh.h.h.h.q.M.*.c.c.d.ZXi.",
"i.i.i.i.i.i.i.i.i.i.i.i.i.i.i.i.i.b.b.OXV.p.n.o.kXk.k.k.k.k.k.k.k.J X X [.B.w.w.Z.Z.w.w.w.w.w.> @.S h.h.h.D #.h.3X9X1 2 c.hX5 i.",
"i.i.i.i.i.i.i.i.i.i.i.i.i.i.i.i.XXb.b.HXp.p.4 D.k.k.k.k.k.k.k.k.+.`.X X 0XN.w.w.w.w.w.w.w.gXF.X.h.h.h.5Xf.f.f.h.h.{ 0.8Xc.c.d.6.",
"6Xi.i.i.i.i.i.i.i.i.i.i.i.i.i.i.b.b./ p.p.U w.w.w.w.U p.p.p.p.p.p.p.p.p.p.p.M.w.w.w.w.w.f v h.h.h.~.f.f.f.f.f.=.h.v {.A 6.c.].5 ",
"4Xi.i.i.i.i.i.i.i.i.i.i.i.i.i.7Xb.9.u.p.n.M.w.w.w.9 p.p.p.p.p.p.p.p.p.p.p.p.U w.w.w.^ e h.h.h.U.f.f.f.f.f.f.f.f.h.h.a 9 AXc.c.d.",
"2 AX7XAX*.o o ;XXXeX% % i.i.% b.b.p p.p.N.w.w.w.w.w.w.w.w.w.w.w.w.w.w.w.w.w.w.w.w.gXX.h.h.H.f.f.f.f.f.f.f.f.f.f.Y X.m N.A . c.c.",
"c.BXb.b.b.b.b.b.b.b.b.b.b.b.b.b.E.p.p.U B.w.w.w.gXA A A A 1 1 1 1 Y.C.C.C./ ^ ^ > w.#Xh.h.f.f.f.f.f.f.f.f.f.f.@ mXv.v.e.4 ,.c.c.",
"+XF.C./ ^ E.f @XF.OX# nXb.b.b.# S.p.p.9 w.w.w.Q h.h.h.h.h.h.h.h.h.h.h.h.h.h.h.h.OXw.8 v h.* f.f.f.f.f.f.f.@ U.v s.< v.@.L 8 @Xf ",
"p.p.p.p.p.p.p.p.p.p.p.p.n.u.W.K p.p.m.w.w.w.w.l h.h.h.h.h.h.h.h.h.h.h.h.h.h.h.h.e M.B.dXh.h.f.f.f.f.f.f.Y   s.s.s.s.v.v.5.A.w.4 ",
"9 9 4 4 4 N.N.m.m.K U K L d L p.p.n.B.w.w.w.w.v h.6 f.f.f.f.f.f.f.f.f.f.f.f.f.h.h.[.4 w.3Xh.h.f.f.f.CXX.s.s.s.s.s.s.tXv.v.d B.Z.",
"w.w.w.w.w.1 ^ F.%X(.  h.h.h.(.B.B.B.w.w.w.w.Y.h.h.f.f.f.f.f.f.f.f.f.f.f.f.f.f.h.h.q U w.Q h.h.D 6 S s.s.s.s.s.s.s.s._.v.v.a N.w.",
"w.w.w.w.w.X.h.h.h.h.h.h.h.h.  9 0.w.w.w.w.w.=Xh.h.f.f.f.f.f.f.f.f.f.f.f.f.f.f.6 h.s.p.B.w.+ h.2X  s.s.s.s.s.s.s.= v.v.v.GXd n.M.",
"1 l w.w.w.(.h.h.H.~.b f.f.h.h.S.m.w.w.w.w.w.e h.Y f.f.f.f.f.@ @ @ @ @ L.L.L.L.b X.X.p 4 w.q.2Xh.H.s.s.s.s.s.m v.v.v.IX, p.p.p.m.",
"; j.w.w.w.y h.H.f.f.f.f.f.h.h.;.U w.w.w.w.1 h.h.f.f.f.f.f.5Xs.s.s.s.s.s.s.s.s.s.v.v.{ U w.w.=Xh.h.X.s.s.< v.v.v.B 0 n.p.p.p.K C.",
"j.j.Z.N.w..Xh.h.f.f.f.f.f.h.h.T.p.B.w.w.w.#Xh.h.f.f.f.f.f.mXs.s.s.s.s.s.s.s.s.s.(.v.%.^.M.w.> $ h.#.tXv.v.v.%.I.V.p.p.p.U 8 l j.",
"j.j.m.p.w.E.h.h.f.f.f.f.f.#.h.~ p.M.w.w.w.(.h.U.f.f.f.f.f.X.s.s.s.s.s.s.s.s.s.s.s.v.v., N.w.w.=Xh.h.m v.@.e.K p.p.p.U 0.+X; j.j.",
"j.j.N.p.w.1 h.h.f.f.f.<.6 $ (.GXp.9 w.w.gX2Xh.@ f.f.f.f.L.s.s.s.s.s.s.s.s.s.s.s.s._.v.5.V.w.w.gXX.h.  5.W.p.p.p.n.4 C.o j.j.j.) ",
"j.j.L p.B.w.$ h.@ f.D (.= v.v.IXp.4 w.w.C.h.h.f.f.f.f.f.U.s.s.s.s.s.s.s.s.s.s.s.s.e v.%.U 9 w.w.F.+ , p.p.p.n.A.> nXj.j.j.} l.l.",
"j.j.d p.B.w.s.h.h.h.h.m v.v.v.v.^.m.w.w.GX2XH.f.f.f.f.f.S s.s.s.s.s.s.s.s.s.s.s.s.s.v.v.0 N.w.w.w.Z.U p.n.N.p +XR.j.j.1Xl.l.l.l.",
"j.j.d p.B.w.m h.h.h.X.@.{ a., L p.U w.8 %.  b f.f.f.f.<.s.s.s.s.s.s.s.s.s.s.s.s.s.s.= v.a n.Z.w.w.w.9 m.}.|.o j.j.j.3 l.l.l.l.l.",
"j.j.[.p.B.w.^ +X> L p.p.p.p.p.p.p.n.w.q.v.s.f.f.f.f.f.Y s.s.s.s.s.s.s.s.s.s.s.s.s.s.s.v.v.S.9 w.w.w.w.A r.j.j.j.&.l.l.l.l.l.l.l.",
"G.1.L p.B.w.w.w.N.p.p.p.n.K N.4 9 B.w.oXv.tXf.f.f.f.f.h.s.s.s.s.s.s.s.s.s.s.s.s.s.s.Q.v.v.G m.w.w.w.KXG.j.j.j.l.l.l.l.l.l.l.l.l.",
"dXx.4 p.M.w.w.w.0.9 M.B.w.A D.w gXw.w.a v.Q.h.@ f.f.@ s.s.s.s.s.s.s.s.s.s.s.s.s.s.v.v.v.a S.n.B.Y.M j.j.j.3 l.l.l.l.l.l.l.l.l.} ",
"x.x.d p.M.w.w.w.w.w.gXFX-.+.k.k.w w.w.w.C._.h.h.Y f.CXs.s.s.s.s.s.s.s.s.s.s.s.e v.v.v.I.p.p.S. Xj.j.j.qXl.l.l.l.l.l.l.l.l.PXo g.",
"x.x.d p.0.w.w.w./.V h k.k.k.k.k.k.a w.w.w.d E h.h.h.#.s.s.s.s.s.s.s.s.s.s.s.Q.v.v.s [.p.p.p.p ' j.j.j.$Xl.l.l.l.l.l.l.l.t K.g.g.",
"x.x.[.p.9 w.>XI k.k.k.k.r W z.rXk.+.G w.w.w.d a 2Xh._.(.s.s.s.s.s.s.s.s.s.v.v.v.a S.p.p.n.4 w.w.[ = j.j.j.qXl.l.l.l.} = g.g.g.g.",
"x.x.HXp.9 w.k.k.k.k.O z.z.z.z.z.k.k.I p w.w.w.B.0 + v.v.v.s.s.s.s.s.s.e v.v.v.I.p.p.p.U M.w.w.w.}.K > M j.j.j.qX) R g.g.g.g.g.g.",
"x.x., p.9 w.H k.W z.z.z.z.z.z.z.z.k.k.w M.w.w.w.w.9 { v.v.v.tXs.s.s.Q.v.v.s [.p.p.p.m.B.w.w.w.w.w.w.M.S.I.o eX' dXq g.g.g.g.g.g.",
"x.x.p p.9 w.H k.W z.z.z.z.z.z.z.z.C k.+.x B.w.w.w.w.M.;.B v.v.= s.v.v.v.a S.p.p.n.4 w.w.w.q.>X> w.w.w.w.9 m.p / x.x.x.! g.g.g.g.",
":Xx.p p.4 w.iXk.C z.z.z.z.z.z.z.uX: P X X ;.w.w.w.w.w.w.4 cXv.v.v.v.v.I.p.p.p.U M.w.w.w.w.w k.:.$.w.w.w.w.w.9 K p !.x.x.x..Xg.g.",
":Xx.0 p.4 w.:.k.C z.z.z.z.z.O 2.J 7 7 X X - 4 w.w.w.w.w.w.0.0 %.v.s [.p.p.p.K B.w.w.w.w.T.k.k.k.k.P /.w.w.w.w.w.9 m.0 !.x.x.x..X",
":Xx.0 p.4 w.:.k.C z.z.z.r I 7 7 7 7 k X X pXn.0.w.w.w.+XN > B.4 { S.p.p.n.4 w.w.w.w.w.w.-.k.k.r k.k.k.w 1 w.w.w.w.Z.4 u.0 ).x.x.",
"x.x.0 p.4 w.>.k.O z.z.z.7 7 7 7 7 7 X X x p.p.U w.A + h.h.2XSX^ p n.p.U M.w.w.w.w.w.w.yXk.k.W z.z.k.k.k.+.zXgXw.w.w.w.B.4 m.> x.",
"<Xx.a.p.A.w.>.k.O z.z.z.P 7 7 7 7 `.X &XS.p.p.9 Q   h.h.h.h.h.2X(.B { A w.w.w.w.w.w.w.P k.k.z.z.z.z.O k.k.k.I FXw.w.w.w.w.B.A.{.",
"K [.0 p.A.w.J k.F z.z.z.P 7 7 7 -.X X ;.p.p.m.=X2Xh.h.b f.f.U.h.h.v _.v.%.N q.w.w.w.FXk.k.z.z.z.z.z.z.C :.+.k.k.7 T.w.w.w.w.w.B.",
"w.9 U p.N.w.P k.k.k.k.: >.7 7 7 X X x p.p.K m h.h.h.f.f.f.f.f.f.f.6 $ + v.GX> w.w.gXI k.r z.z.z.z.z.z.n 7 >.I n k.n V A w.w.w.w.",
"w.w.w.9 4 w./._ I k.k.k.4.X 4.`.X &XS.p.U bXh.h.h.h.h.=.D f.f.f.D h.h.h.5.p.V.N.M.D.k.k.z.z.z.z.z.z.O 7 7 7 7 :.:.k.k.h D.8 w.w.",
"w.w.w.w.w.w.w.w.K HX0Xk 4.X X X X ;.p.p.m.w.|.=X(.h.h.h.h.h.#.~.h.s.< 0 p.p.p.m.8 iXk.k.2.O z.z.z.z.h 7 7 7 7 7 7 Z +.k.k.7 w.w.",
"w.w.w.w.w.w.w.w.M.4 U p.S.pXx -Xx p.p.V.B.A B.K p.L { y S h.h.$ m a S.p.p.n.4 w.q.w h k.k.k.k.k.O F 7 7 7 7 7 7 7 7 7 7 n ] 9 w.",
"w.w.w.w.w.w.w.w.w.w.w.B.4 K n.V.U p.p.9 w.M o =X[ 9 K n.U G IX%.I.p.p.p.U M.E. X'.w.gXI.`.:.k.k.n V X w 7 7 7 7 7 7 X X 0Xp.p.m.",
"( A gXw.w.w.w.w.w.w.w.w.w.w.B.9 m.n.W.w.w. Xj.j.j.eX= +XA 9Xn.p.p.p.p.m.B.q.; j.j.R +X, U ^.G X k X X X X X w 7 7 V X -XL p.p.xX",
"c.c.c.c.6.ZX8.u sX% XXwX*.AX,.9.OX> Z.w.w.C.j.j.j.j.j.j.j.G.l E.p U 4 w.gXo j.j.j.j.j.j.;XN p U p.d ] ` X X X X X X X G p.p.4 6.",
"c.c.c.c.c.c.c.c.c.c.c.c.c.c.c.c.c.,.w.w.w.gX; j.) ) | j.j.j.j.j.j.o A w.UXj.j.l.l.c j.j.j.j.j.; +X0 u.p.d ] ` X X X 0Xp.p.n.wXc.",
"*Xd.d.d.g J.5 *X].NX& P.P.4Xc.c.c.. B.Z.w.w.' j.&.l.l.l.l.) j.j.R.q.B.^ j.j.c l.l.l.l.l.3 1Xj.j.j.j.eX1.0 U p.3.] - 3.p.p.Y.c.c.",
"d.d.d.d.d.d.d.d.d.d.d.d.d.d.d.d.c.c.LX4 w.w.+Xj.j.l.l.) l.j.j.G.p p.L R j.$Xl.l.l.l.l.l.l.l.l.3 X.j.j.j.G.w.M.A.U p.p.p.N.ZXc.P.",
"d.d.d.d.d.d.d.d.d.d.d.d.d.d.d.d.].c.6.4 B.w.( j.j.l.l.M q r.' , p.V.%Xj.j.l.l.l.l.l.l.l.qXj.7.l.l.l.) j.j.m.9 w.w.M.4 U b.c.c.d.",
"d.d.d.d.d.d.d.d.d.d.d.d.d.d.d.d.d.c.c.9.4 w.w.R j.3 l.r.x.!.L p.p.e.o eX) l.l.l.l.l.l.7.K.g.g.%X; } l.j.j.p.n.w.w.w.w.E.c.c.5 d.",
"d.d.d.d.d.d.d.d.d.d.d.d.d.d.d.d.d.hXc.2 4 B.w.r.j.qXj.o !.L p.p.4 x.x..Xo t DXl.l.l.l.= g.g.g.g.g.g.O.UXM p.p.w.w.w.gX8.c.c.d.d.",
"d.d.d.d.d.d.d.g J.g  .d.d.d.d.d.d.d.c.c.nX4 w.E.j.j.j.o L p.p.u.!.x.x.g.g.g.g.= ) l.R g.g.g.g.g.g.g.g.x.x.p.p.w.w.w.8Xc.c.d.d.d.",
"d.d.d.d.d.d. .u i.i.i.i.6Xu j 8.ZX3 j % XX4 B.A j.j.R d p.p.V.<Xx.x.g.g.g.g.K.} l.&.g.g.g.g.g.g.g.g.g.x.x.p.p.w.w.lXc.c.hXd.d.d."
};
