/* XPM */
static char *_c7ce67ce51b4be7b789ac7ce6b894bcxl1xIXS8kADKvO0p[] = {
/* columns rows colors chars-per-pixel */
"64 64 256 2 ",
"   c #1E0D0A",
".  c #4E201B",
"X  c #200D0A",
"o  c #341512",
"O  c #301311",
"+  c #644A2A",
"@  c #52221D",
"#  c #4A1E19",
"$  c #26100D",
"%  c #573F24",
"&  c #27100E",
"*  c #735431",
"=  c #4D1F1B",
"-  c #28100E",
";  c #3F1A16",
":  c #431C16",
">  c #331412",
",  c #5C2620",
"<  c #220E0C",
"1  c #250E0D",
"2  c #5B2520",
"3  c #3E1916",
"4  c #4F201B",
"5  c #4C201A",
"6  c #3A1714",
"7  c #3E1A15",
"8  c #391813",
"9  c #52211D",
"0  c #260F0E",
"q  c #2C1210",
"w  c #3C1A15",
"e  c #250F0C",
"r  c #1D0B0A",
"t  c #200E0C",
"y  c #1E0E0B",
"u  c #8F8E78",
"i  c #7F5D35",
"p  c #6E6D5C",
"a  c #5A462A",
"s  c #3D1915",
"d  c #3C1815",
"f  c #805E36",
"g  c #2A110E",
"h  c #421B16",
"j  c #E3DEC5",
"k  c #4B1F1A",
"l  c #55231E",
"z  c #51211C",
"x  c #2A120E",
"c  c #1B0B09",
"v  c #411A16",
"b  c #441C17",
"n  c #937345",
"m  c #7B7967",
"M  c #F8F7F0",
"N  c #5A4226",
"B  c #42301B",
"V  c #715835",
"C  c #301410",
"Z  c #58574A",
"A  c #3F311E",
"S  c #755631",
"D  c #371613",
"F  c #674F30",
"G  c #301411",
"H  c #3A1814",
"J  c #A67A46",
"K  c #584025",
"L  c #341612",
"P  c #48351E",
"I  c #A09E86",
"U  c #523B22",
"Y  c #ECE8D7",
"T  c #311411",
"R  c #3C1915",
"E  c #6D502E",
"W  c #361612",
"Q  c #381713",
"!  c #352616",
"~  c #491E19",
"^  c #46331D",
"/  c #664B2B",
"(  c #331512",
")  c #5E2721",
"_  c #5D4427",
"`  c #481E1A",
"'  c #5A251F",
"]  c #64492A",
"[  c #441C18",
"{  c #391714",
"}  c #B1A696",
"|  c #2B120F",
" . c #3B1814",
".. c #626152",
"X. c #50211C",
"o. c #4F3D25",
"O. c #2E1210",
"+. c #2B120E",
"@. c #574025",
"#. c #3D2D1A",
"$. c #401A16",
"%. c #503B21",
"&. c #451C18",
"*. c #471E19",
"=. c #4A361F",
"-. c #361613",
";. c #614729",
":. c #2F1310",
">. c #461D18",
",. c #2C120F",
"<. c #5E4527",
"1. c #99683C",
"2. c #451D18",
"3. c #4D3820",
"4. c #543E23",
"5. c #5B472B",
"6. c #421B17",
"7. c #735330",
"8. c #471D18",
"9. c #381714",
"0. c #3D1916",
"q. c #321511",
"w. c #1B0B0A",
"e. c #594126",
"r. c #56231E",
"t. c #634D2E",
"y. c #3E1915",
"u. c #4F3E25",
"i. c #471D19",
"p. c #411B16",
"a. c #422F1B",
"s. c #481E19",
"d. c #5B4226",
"f. c #160907",
"g. c #63492A",
"h. c #5E4528",
"j. c #795933",
"k. c #533C23",
"l. c #53221D",
"z. c #311511",
"x. c #72532F",
"c. c #6C4F2D",
"v. c #481D19",
"b. c #57241E",
"n. c #43311C",
"m. c #513C22",
"M. c #1D0C09",
"N. c #2E1310",
"B. c #A19788",
"V. c #6A4D2C",
"C. c #856238",
"Z. c #371614",
"A. c #533D23",
"S. c #2D130F",
"D. c #483822",
"F. c #B0A595",
"G. c #745531",
"H. c #381613",
"J. c #461E18",
"K. c #371713",
"L. c #BAAD9A",
"P. c #4A1E1A",
"I. c #4B1E1A",
"U. c #775732",
"Y. c #391814",
"T. c #54231E",
"R. c #2A110F",
"E. c #2E1211",
"W. c #391614",
"Q. c #70522F",
"!. c #7D5C35",
"~. c #491E1A",
"^. c #5F4628",
"/. c #93826D",
"(. c #664A2B",
"). c #968A79",
"_. c #59241E",
"`. c #6E512F",
"'. c #5A4125",
"]. c #5A594B",
"[. c #160908",
"{. c #5F5E50",
"}. c #301511",
"|. c #361712",
" X c #A9A092",
".X c #421A17",
"XX c #6D502D",
"oX c #543E24",
"OX c #553F26",
"+X c #2A120F",
"@X c #BAAC99",
"#X c #998E7C",
"$X c #3B1815",
"%X c #676656",
"&X c #44321D",
"*X c #554026",
"=X c #493922",
"-X c #2B110F",
";X c #7D5B34",
":X c #785832",
">X c #6C6B5B",
",X c #9E8F7C",
"<X c #481E18",
"1X c #71532F",
"2X c #70532F",
"3X c #694D2C",
"4X c #5E2620",
"5X c #58241E",
"6X c #58241F",
"7X c #5C4326",
"8X c #A89F92",
"9X c #391713",
"0X c #471E18",
"qX c #634829",
"wX c #9D8F7C",
"eX c #998D7C",
"rX c #968979",
"tX c #351613",
"yX c #93826C",
"uX c #2E130F",
"iX c #7D5C34",
"pX c #2D1210",
"aX c #5A462B",
"sX c #391715",
"dX c #431B17",
"fX c #56231D",
"gX c #B1A596",
"hX c #6A4E2D",
"jX c #311510",
"kX c #1F0C0C",
"lX c #421A16",
"zX c #431B16",
"xX c #4A1F1A",
"cX c #401B16",
"vX c #2F1311",
"bX c #25100D",
"nX c #B9AC99",
"mX c #441D17",
"MX c #55221E",
"NX c #461C17",
"BX c #2F1410",
"VX c #341611",
"CX c #3A1815",
"ZX c #461D19",
"AX c #311512",
"SX c #471E1A",
"DX c #381614",
"FX c #3C1814",
"GX c #321611",
"HX c #664A2A",
"JX c #4C1F1A",
"KX c #351612",
"LX c #220E0B",
"PX c #5F2721",
"IX c #674B2B",
"UX c #523C22",
/* pixels */
"IXIXIXIXIXIXIXIXIXIXIXIXIXIXIXIXIXIX_ K K } M M Y j j j j j j j j j j j j j j Y M M } K K _ IXIXIXIXIXIXIXIXIXIXIXIXIXIXIXIXIXIX",
"IXIXIXIXIXIXIXIXIXIXIXIXIXIXIXIXIXIXIX_ K K } M M Y j j j j j j j j j j j j Y M M } K K _ IXIXIXIXIXIXIXIXIXIXIXIXIXIXIXIXIXIXIX",
"IXIXIXIXIXIXIXIXIXIXIXIXIXIXIXIXIXIXIXIX_ K K } M M Y j j j j j j j j j j Y M M } K K _ IXIXIXIXIXIXIXIXIXIXIXIXIXIXIXIXIXIXIXIX",
"IXIX;.x.x.:Xi i i i i i i i i i i i i i i * c.c.nXM M Y j j j j j j j j Y M M L.c.c.* i i i i i i i i i i i i i i i :Xx.x.;.IXIX",
"IX;.UXHX/ / j.f f f f f f f !.U.Q.V.V.Q.U.!.G.E E @XM M Y j j j j j j Y M M L.E E G.f f f f f f f f f f f f f f f j./ / HXUX;.IX",
"IXN UXyX/./ 2Xf f f !.U.Q.V.IXIXIXIXIXIXIXIXV.+ (.hX@XM M Y j j j j Y M M L.E E G.f f f f f f f f f f f f f f f f 2X/ /.yXUXN IX",
"UXB &XB.B.oXUXIXIXIXIXIXIXIXIXIXIXIXIXIXIXIXIXIX_ K K F.M M Y j j Y M M } K K _ IXIXIXIXIXIXIXIXIXIXIXIXIXIXIXIXIXUXoXB.B.&XB UX",
"UXP B OX*XUXN IXIXIXIXIXIXIXg.h.e.4.4.e.h.g.IXIXIX_ K K F.M M Y Y M M } K K _ IXIXIXIXIXIXIXIXIXIXIXIXIXIXIXIXIXIXN UX*XOXB P UX",
"UXUXP U U '.HXHXHXHXg.h.e.4.UXUXUXUXUXUXUXUX4.e.h.g.7X% % F.M M M M gX% % 7XHXHXHXHXHXHXHXHXHXHXHXHXHXHXHXHXHXHXHXHX'.U U P UXUX",
"UXUXUXm.m.UXUXUXUXUXUXUXUXUXUXUXUXUXUXUXUXUXUXUXUXUXUX=.^ ^ 8XM M  X^ ^ =.UXUXUXUXUXUXUXUXUXUXUXUXUXUXUXUXUXUXUXUXUXUXm.m.UXUXUX",
"UXUXUXUXUXUXUXUXUXUXUXUXUXUXUXUXUXUXUXUXUXUXUXUXUXUXUXUX=.^ ^ 8X X^ ^ =.UXUXUXUXUXUXUXUXUXUXUXUXUXUXUXUXUXUXUXUXUXUXUXUXUXUXUXUX",
"UXUXUXUXUXUXUXUXUXUXUXUXUXUXUXUXUXUXUXUXUXUXUXUXUXUXUXUXUX=.^ ^ ^ ^ =.UXUXUXUXUXUXUXUXUXUXUXUXUXUXUXUXUXUXUXUXUXUXUXUXUXUXUXUXUX",
"B B B U a.! ! ! [.[.w.c c c c c M.X X M.c c c c c c c r y LXX kXt < 0 0 1   r c c c c c w.    LXLXLXLXLXLXLXc c B B B U a.! ! ! ",
"B B B U a.! ! ! f.f.c c M.X LXLXLXLXLXLXLXLXX M.c w.M.                        M.w.c c c c c c c c c c c c c f.f.B B B U a.! ! ! ",
"UXUXUXHXU B B B c c LXLXLXLX< e & +Xx < LXt t t LX- g $ $ $ $ $ $ $ $ $ $ $ e y   r M.M.M.  LXLXLXLXLXLXLXLXc c UXUXUXHXU B B B ",
"UXUXUXHXU B B B c w.bXg S.z.L KXKXKXx x x x +.-XR.- O O O.O.,.x g x x x | pXg x x - 1 < LX  < LXLXLXLXLXLXLXc c UXUXUXHXU B B B ",
"IXIXIXi HXUXUXUXx x KXKXKXKXKXKXKXKXx +.S S N N Q Q NX[ b b b b b b b b b b W W S S N N O O.KXKXKXKXKXKXKXKXx x IXIXIXi HXUXUXUX",
"IXIXIXi HXUXUXUXx x KXKXKXKXKXsXd $.W 8 S J f N ~.*.6Xb.MX@ . k ~ *.>.2.b b W W S J f N o O D KXKXKXKXKXKXKXx x IXIXIXi HXUXUXUX",
"IXIXIXi HXUXUXUX+X,.W. .R 7 lXk i.$.H.H ] 1.E 3.v v z ' PXPXPXPX) , ' 5X9 i.9.DX] 1.E 3.o T -.o Z.D -.KXKXKXx x IXIXIXi HXUXUXUX",
"IXIXIXi HXUXUXUXKXKXh h h h b k dXSXH H ] 1.E 3.v v z z PXPXPXPXPXPXPXPXz 4 7 R ] 1.E 3.H H i.H h h h h h h KXKXIXIXIXi HXUXUXUX",
"IXIXIXi HXUXUXUXKXKXh h h h <Xl.` ` u u u u u u u u z z PXPXPXPXPXPXPXPXz z u u u u u u u u ` [ b h h h h h KXKXIXIXIXi HXUXUXUX",
"IXIXIXi HXUXUXUXKXKXh h h 2.@ l ` ` u u u u u u u u z z PXPXPXPXPXPXPXPXz z u u u u u u u u . JX5 2.h h h h KXKXIXIXIXi HXUXUXUX",
"IXIXIXiXHXUXUXUXKXKXh : ~ k T.l ` ` u u I I I I u u z z PXPXPXPXPXPXPXPXz z u u I I I I u u z z l.k 0Xh h h KXKXIXIXIXi HXUXUXUX",
"IXIXIXj.HXUXUXUXKXKXJ.k k JXl l ` ` p p m m m m p p z z PXPXPXPXPXPXPXPXz z p p m m m m p p z z _.k k ~ : h KXKXIXIXIXi HXUXUXUX",
"IXIXIXS HXUXUXUXW  .k k ~ k 4 = $.7 p p p p p p p p z z PXPXPXPXPXPXPXPXz z p p p p p p p p ~.JX_.. k k I.b KXKXIXIXIXi HXUXUXUX",
"IXIXIX1XHXUXUXUX( q.0.d d v b b H  .p p p p p p p p 6.&.l.b.' 4X4X' b.l.&.6.p p p p p p p p v v ~ b v b J.# |.KXIXIXIXi HXUXUXUX",
"IXIXIXE + UXUXUXO O d d d h b b H ; g g %.7.@.#.g g v v JXJXJXJXJXJXJXJXv v g g %.7.@.#.g g v v # b 3 d d d O pXIXIXIXi HXUXUXUX",
"IXIXIX3X;.UXUXUXO O d d d b b b : ; & & %.7.@.#.< < tXs 6.&.*.P.JXJXJXJXv.v g g %.7.@.#.- &  .; y.9.-.( W Z.E.O IXIXIXi HXUXUXUX",
"IXIXIX/ <.UXUXUXE.E.9.D D $X{ 9.R s & & <.C./ P & & s s s s s s 7 $.6.&.*.P.vXN.<.C./ P & & s s R D D T C C $ $ IXIXIXi HXUXUXUX",
"IXIXqXHXN UXUXUX$ & C C q.D D H s s & & <.C./ P & & s s s s s s s s s s s s & & <.C./ P & & s s s D D L C C $ $ IXIXIXi HXUXUXUX",
"IXIX] HX@.UXUXUX$ x C C L D Q s s y.q.o S J f N 9X6 ~ I.~ &.p.y.s s s s s s T T S J f N T T s s s K.D D G C $ $ IXIXIXi HXUXUXUX",
"IXIXIXIX4.UXUXUXx q.W D 3 v 8.I.JXJXs s S J f N s s JXJXJXJXJXJX~ &.p.y.s s T T S J f N T T s s s K.D D ( C $ $ IXIXIXi HXUXUXUX",
"IXIXIXXXUXUXUXUXO d d d b 8.JXJXJXJXs s S J f N s s JXJXJXJXJXJXJXJXJXJXJXJXs s S J f N R  .~ v.>.; s d Y.q.& $ IXIXIXi HXUXUXUX",
"IXIXIX`.UXUXUXUXO d d 3 &.k JXJXJXJX7 $.S J f N >.*.2 , ' l X.JXJXJXJXJXJXJXs s S J f N s s JXJXJX8.b b b ; O O IXIXIXi HXUXUXUX",
"IXIXIX* UXUXUXUX( h : s.l.' 2 , ) PXJXJXS J f N JXJXPXPXPXPXPX) ' l X.JXJXJXs s S J f N s s JXJXJX8.b b b h O O IXIXIXiXHXUXUXUX",
"IXIXIX;XUXUXUXUXR ~ k l.PXPXPXPXPXPXJXJXS J f N JXJXPXPXPXPXPXPXPXPXPXPX) ) k k S J f N I.P.' _.b.X.k xXs.8.q.O IXIXIXj.HXUXUXUX",
"IXIXIXi % UXUXUXR : k , PXPXPXPXPXPXJXJXS J f N JXJXPXPXPXPXPXPXPXPX' z z z v v ] 1.E 3.v v z z z fXl l l l .XR IXIXIXS HXUXUXUX",
"IXIXIXi d.UXUXUX .s 4 PXPXPXPXPXPXPXJXJXS J f N JXJXPXPXPXPXPXPXPXPXz z z z v v ] 1.E 3.v v z z z = l l l l [ 0.IXIXIX1XHXUXUXUX",
"IXIXIXi ^.UXUXUX8 R . , PXPXPXPXPXPXJXJXS J f N JXJXPXPXPXPXPXPXPXPXz z u u u u u u u u u u u u z . l l l l [ v IXIXIXE + UXUXUX",
"IXIXIXi ] UXUXUX|.R X.r., PXPXPXPXPXJXJXS J f N JXJXPXPXPXPXPXPXPXPXz z u u u u u u u u u u u u z 4 l l l l [ [ IXIXIX3X;.UXUXUX",
"IXIXIXi HXUXUXUXKXR l.l r.) PXPXPXPXJXJXS J f N JXJXPXPXPXPXPX) , ' k ~.u u I I I I I I I I u u z X.l l l l [ .XIXIXIX/ <.UXUXUX",
"IXIXIXi HXUXUXUXKXH T.l l 5XPXPXPXPXJXJXS J f N s.>.r.l.z X.. JXJXJXv v p p m m m m m m m m p p [ i.= 4 9 l.[ 3 IXIXqXHXN UXUXUX",
"IXIXIXi HXUXUXUXx O.p.H H H F F F F F F F F F F F F F F F F v v v v.v v p p m m m m m m m m p p v v &.b b b W O.IXIX] HX@.UXUXUX",
"IXIXIXi HXUXUXUXx O.H H H H F n n n n n n n n n n n n n n F v v v v v v p p m m m m m m m m p p Q H $.p.6.b O x IXIXIXIX4.UXUXUX",
"IXIXIXi HXUXUXUXx O.Y.Y.u u F n n n n n n n n n n n n n n F u u H 9.-.tXp p m m m m m m m m p p o o Q D D ( < e IXIXIXXXUXUXUXUX",
"IXIXIXi HXUXUXUXLX0 S.:.u u F n n n n n n n n n n n n n n F u u o o o o p %X................%Xp o o { D q.:.LXLXIXIXIX`.UXUXUXUX",
"IXIXIXi HXUXUXUXLXe | :.u u o.V V V V V t.a a t.V V V V V o.u u o o o o >X].Z Z Z Z Z Z Z Z ].>Xo o { z.C ,.LXLXIXIXIX* UXUXUXUX",
"IXIXIXi HXUXUXUXLXLX$ N.p p o.V V V V t.a aX5.a t.V V V V o.p p o o o o {.Z Z Z Z Z Z Z Z Z Z {.( G T C C g LXLXIXIXIX;XUXUXUXUX",
"IXIXIXi HXUXUXUXg $ - x p p o.V V V V a 5.eXeX5.a V V V V o.p p v v v v o o g g %.7.@.#.g g T C 9Xo d d W.KXx x IXIXIXi % UXUXUX",
"IXIXIXi HXUXUXUXx x S.T p p o.V V V V a 5.#X#X5.a V V V V o.p p v v v.v o o g g %.%.#.#.0 e uXS.> { d d W KXx x IXIXIXi d.UXUXUX",
"IXIXIXi HXUXUXUXx x S.O p p A a a a a u.D.=X=XD.u.a a a a A p p v v JXJXs s T T & 0 1 LX+.+.KXO d d d 6 KXKXx x IXIXIXi ^.UXUXUX",
"IXIXIXi HXUXUXUX( G T :.p p A a a a a a u.D.D.u.a a a a a A p p X.X.) ) k k ZXCX,.| | | -.R R R k k k mXh h KXKXIXIXIXi ] UXUXUX",
"IXIXIXi HXUXUXUXKXKXQ Q Z Z A a a a a a a a a a a a a a a A Z Z z z PXPX) ' r.l l l l l X.k k k k k k h h h KXKXIXIXIXi HXUXUXUX",
"IXIXd.HXU P UXUXKXKXQ Q Z Z A a a a a a a a a a a a a a a A Z Z z z , 6Xl l l l l l l 4 k k k k k k 0Xh h h KXKXIXIXd.HXU P UXUX",
"IXN UX(.k.B P UXKXKXQ Q BX( A a a a a a a a a a a a a a a A v $.= xXl l l l l l l l . k k k k k k k : h h h KXKXIXN UX(.k.B P UX",
"IXUXA.wXrXn.B UXKXKX; Q uX( A A A A A A A A A A A A A A A A w  .` z l l l l l l T.= k k k k k k k ~ h h h h KXKXIXUXA.wXrXn.B UX",
"IXUXA.,X).n.B UXKXKXh h KXFXG G G G G G G G G G G C q.-.( G H K.2.>.*.s.# k k JX>.2.J.<X~ # k k k 2.h h h h KXKXIXUXA.,X).n.B UX",
"IXN UXIXk.B P UXKXKXh h KXH G G G G O N.,.+.x - & 0 0 & x +.W W b b b b b b zXs d d d d d d d 0.0.Z.Z.W.{ H O G IXN UXIXk.B P UX",
"IXIXN HXU P UXUXx x KXKXKXD d d d d d d d d d d d d d d d 3 h b b b b b b h d d d d d d d d d d { KXKXKXKXKXx x IXIXN HXU P UXUX",
"IXIXIXi HXUXUXUXx x KXKXKXKXH.H.W.{ { { 6 6 $Xd d d d d d d d 0.cX; s  .D G C }.}.q.( VXL W D D AXz.q.( o KXx x IXIXIXi HXUXUXUX",
"UXUXUXHXHXUXUXUXx x L L L L L L L L L L L L L L ( GXjXC C N.q pXpXz.L q.:.:.C C C C C C C C C O g g g g g g < < UXUXUXHXHXUXUXUX",
"UXUXUXUXUXUXUXUXLXLXg g g g g g g g g g g g g g g g g g g g g g g g +.g g g g g g R.R.-X| | ,.| g g g g g g LXLXUXUXUXUXUXUXUXUX",
"UXUXUXUXUXUXUXUXc c LXLXLXLXLXLXLXLXLXLXLXLXLXLXLXLXLXLXLXLXLXLXLXLXLXLXLXLXLXLXLXLXLXLXLXLXLXLXLXLXLXLXLXLXc c UXUXUXUXUXUXUXUX",
"UXUXUXUXUXUXUXUXc c LXLXLXLXLXLXLXLXLXLXLXLXLXLXLXLXLXLXLXLXLXLXLXLXLXLXLXLXLXLXLXLXLXLXLXLXLXLXLXLXLXLXLXLXc c UXUXUXUXUXUXUXUX"
};
