/* XPM */
static char *_a7c473a2ba44259d361bbdbb3c69b3d71czfzyNO8G2jiYN[] = {
/* columns rows colors chars-per-pixel */
"64 64 255 2 ",
"   c #554D48",
".  c #564E49",
"X  c #564F4A",
"o  c #574F4A",
"O  c #574F4B",
"+  c #57504A",
"@  c #57504B",
"#  c #55514D",
"$  c #56514E",
"%  c #56524E",
"&  c #56524F",
"*  c #57524F",
"=  c #57534F",
"-  c #58504B",
";  c #58514B",
":  c #58504C",
">  c #58514C",
",  c #59514C",
"<  c #59514D",
"1  c #59524C",
"2  c #59524D",
"3  c #5A524D",
"4  c #5A534D",
"5  c #5B534D",
"6  c #5A524E",
"7  c #5A534E",
"8  c #5B534E",
"9  c #5B534F",
"0  c #5B544E",
"q  c #5B544F",
"w  c #5C544E",
"e  c #5C554F",
"r  c #5D554F",
"t  c #575350",
"y  c #585350",
"u  c #585450",
"i  c #595450",
"p  c #585451",
"a  c #595451",
"s  c #595551",
"d  c #5A5551",
"f  c #595552",
"g  c #5A5552",
"h  c #5A5652",
"j  c #5B5652",
"k  c #5A5653",
"l  c #5B5653",
"z  c #5B5753",
"x  c #5C5450",
"c  c #5C5550",
"v  c #5C5551",
"b  c #5D5551",
"n  c #5D5650",
"m  c #5D5651",
"M  c #5E5650",
"N  c #5E5751",
"B  c #5F5751",
"V  c #5D5652",
"C  c #5C5753",
"Z  c #5E5752",
"A  c #5F5753",
"S  c #5B5754",
"D  c #5C5754",
"F  c #5F5852",
"G  c #5F5853",
"H  c #5C5854",
"J  c #5D5854",
"K  c #5C5855",
"L  c #5D5855",
"P  c #5D5955",
"I  c #5F5854",
"U  c #5E5955",
"Y  c #5D5956",
"T  c #5E5956",
"R  c #5E5A56",
"E  c #5F5A56",
"W  c #5E5A57",
"Q  c #5F5A57",
"!  c #5F5B57",
"~  c #5F5B58",
"^  c #605751",
"/  c #605852",
"(  c #605853",
")  c #615953",
"_  c #625953",
"`  c #605854",
"'  c #605955",
"]  c #615A55",
"[  c #625A54",
"{  c #635A54",
"}  c #635A55",
"|  c #635B55",
" . c #615A56",
".. c #605B57",
"X. c #625B57",
"o. c #645B55",
"O. c #635C57",
"+. c #645C56",
"@. c #655C56",
"#. c #655C57",
"$. c #655D57",
"%. c #665D57",
"&. c #605B58",
"*. c #605C58",
"=. c #615C58",
"-. c #605C59",
";. c #615C59",
":. c #615D59",
">. c #625C58",
",. c #635C58",
"<. c #635C59",
"1. c #625D59",
"2. c #635D59",
"3. c #615D5A",
"4. c #625D5A",
"5. c #635D5A",
"6. c #625E5A",
"7. c #635E5A",
"8. c #625E5B",
"9. c #635E5B",
"0. c #635F5B",
"q. c #645D59",
"w. c #665D58",
"e. c #655E59",
"r. c #665E58",
"t. c #675E58",
"y. c #665E59",
"u. c #675F59",
"i. c #645D5A",
"p. c #645E5A",
"a. c #655E5A",
"s. c #645E5B",
"d. c #655E5B",
"f. c #645F5B",
"g. c #655F5B",
"h. c #635F5C",
"j. c #645F5C",
"k. c #655F5C",
"l. c #665F5C",
"z. c #685F59",
"x. c #685F5A",
"c. c #64605C",
"v. c #65605C",
"b. c #65605D",
"n. c #65615D",
"m. c #66605C",
"M. c #66605D",
"N. c #67605D",
"B. c #66615D",
"V. c #67615D",
"C. c #66615E",
"Z. c #67615E",
"A. c #66625E",
"S. c #67625E",
"D. c #67625F",
"F. c #67635F",
"G. c #68605A",
"H. c #69605A",
"J. c #68605B",
"K. c #6A615B",
"L. c #69615C",
"P. c #68615D",
"I. c #6A615C",
"U. c #6A625C",
"Y. c #68625E",
"T. c #68625F",
"R. c #69625F",
"E. c #68635F",
"W. c #69635F",
"Q. c #6A635E",
"!. c #6B635E",
"~. c #6A635F",
"^. c #6B645F",
"/. c #686360",
"(. c #696360",
"). c #6A6360",
"_. c #696460",
"`. c #696461",
"'. c #696561",
"]. c #6A6460",
"[. c #6B6460",
"{. c #6A6461",
"}. c #6B6461",
"|. c #6A6561",
" X c #6B6561",
".X c #6A6562",
"XX c #6B6562",
"oX c #6B6662",
"OX c #6B6663",
"+X c #6D6560",
"@X c #6C6561",
"#X c #6D6661",
"$X c #6C6562",
"%X c #6C6662",
"&X c #6D6662",
"*X c #6C6663",
"=X c #6D6663",
"-X c #6C6763",
";X c #6D6763",
":X c #6C6764",
">X c #6D6764",
",X c #6E6863",
"<X c #6F6863",
"1X c #6D6864",
"2X c #6D6865",
"3X c #6E6864",
"4X c #6F6864",
"5X c #6F6964",
"6X c #6E6865",
"7X c #6E6965",
"8X c #6F6965",
"9X c #6E6966",
"0X c #6F6966",
"qX c #6F6A66",
"wX c #706863",
"eX c #706964",
"rX c #706965",
"tX c #716A65",
"yX c #706A66",
"uX c #706A67",
"iX c #706B67",
"pX c #716B67",
"aX c #726A66",
"sX c #726B66",
"dX c #726B67",
"fX c #716B68",
"gX c #716C68",
"hX c #726C68",
"jX c #736C68",
"kX c #736D68",
"lX c #726C69",
"zX c #726D69",
"xX c #736D69",
"cX c #736D6A",
"vX c #736E6A",
"bX c #746D69",
"nX c #746E6A",
"mX c #756E6A",
"MX c #746E6B",
"NX c #746F6B",
"BX c #756F6B",
"VX c #756F6C",
"CX c #76706B",
"ZX c #75706C",
"AX c #76706C",
"SX c #77706C",
"DX c #76706D",
"FX c #76716D",
"GX c #77716D",
"HX c #77716E",
"JX c #77726E",
"KX c #78716D",
"LX c #78726E",
"PX c #78736F",
"IX c #79736F",
/* pixels */
"|.c.S k k k k $ # = (.VX .O O   O   2 B  .k.P.FXIXIXaXo.@.K.K.K.0 2 5 5 #     W.lXgXc.c.|.#X1X|.|.|.c.Y h Y = $ O.CXlXc.c.W.#X|.",
"&.k k k k k = # = c.aXMX>X#X .1.W.>X#X>X>X>X#XMXIXIXlXO   2 5 5 5 0 5 #     O.aXIXlXc.P.#X|.|.|.1X|.O.h h k $ = |.PX1Xi.c.W.|.|.",
"k k k k k = $ $ c.7XFXIXMX>X>X>X|.P.P.wXlXMXIXIXIXIXMX5   5 2 2 5 5 5   O B 7XFXIXaXc.k.|.7X|.7X|./.h H H u $ Y lXIXc.c./.|.c.Y ",
"k k k k $ # $ i.7XFXIXIXMXMXMX|.c.c.c.c.lXIXIXIXIXIXIX1.          O     O |.CXIXIXgXk 1.c.|.|.c.~ h H h h $ $ c.FXCXc.c.|.1.H h ",
"k k = $ # $ c.#X7X1X|.c.i.#XIXW.c.c.P.c.h |.PXPXIXIXIX#X    O     O   O c.aXIXIXIXFXc.k Y Y k S h H h H u = u 7XIX1XJ Y H k k k ",
"k $ $ $ h W.#Xc.c.c.c.c.c.c.IXc.c.W.1Xc.= $ c.PXIXIXIXMX#X|.|.c.i.1. .k.7XIXIXIXIXFX7X(.J $ $ t H h H u = = R CXIXCXk $ $ k k k ",
"$ $ $ 1.1X1Xc.c.P.P.|.|.c.P.kXc.c.1XW.c.u $ = R FXIXIXSX>X>X>X>X#X|.|./.gXZXlXFXZXMXfX7X#X1.2 t $ u = $ $ = /.IXIXCX|.$ # $ u u ",
"$ $ c.7XqXF.c.c.#X|.|.#XP.c.W.c.c.-X-XY h k # = Y IXIXIXPXIXlXaX>X|.|.OX7XaX7X7XaX7X8.|.7X>Xc.k = $ = = R /.lXPXIXIX7Xc.# # # # ",
"Y |.#XMX7Xc.c.|.|.:X|.-X/.c.c.c.F.-Xc.H h H u $ c.IXIXFXlXfXaXaX7XlXlXlXlXMXlXMXgX1XR R OXlX7X#XY B 8.#X>X#XIXIXIXIXFX7X(.i.Y k ",
"#XaXFXMXc.c.|.-X-X|.-X|.|.c.c.P.|.|.1.h H h $ = |.IXlXqX7X7X7XMXFXIXIXIXIXIXIXIXIXW.c.R Y >XFX7X>X>X>X7XlXIXIXIXIXFXFXaX|.k.|.#X",
"lXIXIXP.c.P.-X|.|.-X|.-X|.|.1X#X-X|.h H h u $ h gXFXqXqXCXFXIXIXIXIXIXIXIXIXIXIXaXF.c.c.~ Y 7XFXfX7XMXgX1X|.|.c.c.c.P.c.k.1.D 7X",
"IXIX7Xc.c.|.|.-X-X|.-X|.1X1X|.|.|.c.H h H = = 1.FXgX7XlXIXPXIXIXIXIXIXIXIXIXIXCXF.P.W.c.~ ~ c.IXPXPXaXc.c.c.c.c.c.c.c.P.c.c.D (.",
"7XIX#Xc.c.1X#X|.-X|.#X|.|.|.|.|.c.H h H k = $ #XIXaX7XFXIXIXIXIXIXIXIXIXIXIXlXF.c.W.P.c.~ Y uXIXPX7Xc.c.c.|.|.|.|.|.|.-X#X/.c.k ",
"k MXlXc.c.W.|.#X|.-X|.1X|.|.1.Y H h H h 0 $ Y MXaX7XlXIXIXIXIXIXIXIXIXIXFX1XW.W.c.F.c.~ ~ c.lXIXfXk.c.(.-X|.|.|.-X|.-X|.|.>XP.Y ",
"$ ~ aX|.c.c.|.-X-X|.|.c.~ h H h h H h h $ = c.IXgX7XFXIXIXIXPXPXIXIXIXMXP.W.c.c.W.c.1.~ ~ >XFX7Xc.c.(.#X|.-X|.-X|.-X|.-X|.|.c.0 ",
"$ 2 c.7XW.c.c.|.|.c.Y Y h H h H H h u $ = u gXFX7X7XIXIXIXIXPXPXIXIX7Xc.c.W.W.F.c.1.~ ~ |.lXaXc.c./.#X|.-X|.-X|.-X|.-X|.-X|.H k ",
"k $ = |.1Xc.i.Y h H h H h H h k = = # $ 0 c.CXCXk.8.|.lXFXFXPXPXlX|.c.(./.(.c.8.~ ~ ~ |.aXlXc.P.|.#X|.OX|.-X|.-X|.-X|.-X|.R Y h ",
"H $ $ J 7Xc.= $ h H H h h k = $ = $ J c.1X7XIXFX(.~ ~ 8.c././.(.W.P.(.c.c.c.&.~ Y 8.|.#XMXIXc.c.|.|.>X|.-X|.-X|.-X|.-X-XR h J h ",
"u $ = 7XFX-XJ $ = h k u = = = = Y W.1XW.i.5 i.IXuX1.~ ~ 1.1.8.8.c.c.c.(.k.~ ~ ~ /.>X7XMXIXMXc.c.|.|.|.|.|.-X|.-X|.|.F.1.h h h h ",
"$ = c.7XIXCXW.= $ = $ $ $ u 1.|.-Xc.o.^ .      .VX(.Y ~ ~ ~ ~ ~ ~ ~ ~ ~ Y ~ 1.>X>X7XIXIXIXFXP.1.c.|.|.7X-X|.-X|.|.c.h h J Y h h ",
"$ ~ >XFXIXIXaX1.$ $ $ H c.>X#X#X2   5   5 O     B >X#X(.(.k.8.&.~ ~ ~ Y ~ k.>X>XVXPXPXPXIXIX7X2 Y c.-X|.-X|.-Xc.R h h h h h h = ",
"k OXVXIXIXIXFX7XB &.|.7X>XaXlX1X    5 5 5 5 #     2 |.>X>X>X>X>X>X|.(./.#X>XfXVXPXPXIXPXIXIXMXY $ $ Y c.|.c.H h h h J h h k = = ",
"#XfXIXIXIXIXPXlX>X>X>XfXVXPXIXIX5       .       O ^ VXFXMXlXaX7X>Xz. .o.o.o.o.o.K.wXSXIXIXIXIX#X1.u $ $ k 0 h H h Y h = = = $ h ",
"aXPXIXIXIXIXIXIX>X#X>XwXIXPXIXCXP.              &.7XIXIXIXIXIXIXP.o.o.o.o.o.o.o.o.o.o.2 i.#XMXMX7X#X1.= $ $ u u h k = $ = h c.-X",
"FXMXsXwX^.U.K.o.o.o.o.5 5 #XIXIXaXOX|.P.k.1.&.P.7XaXIXIXIXIXIXz.o.o.z.z.z.K.z.K.H.@.5         5 #X>X7X|.1.$ $ $ = = $ k c.#X>XuX",
" .o.o.o.o.@.o.o.o.@.@.o     J MXFX#X>X7X>X7X>X>XMXMX>XFXIXIXIXo.o.z.K.K.K.K.K.K.K.K.5 0 . #   o MXIXlX>X7X>X1.t = = 1.|.1XaXMX7X",
"o.@.@.@.@.z.z.K.K.K.@.2       O aXPXFXFXlX7X|.7X7X7X1.c.IXIXIX^ o.K.U.K.K.K.K.K.K.i.5 5 5 .   5 VXIXIXFX7X7X>XOXc.|.1XaXMXIXaXo.",
"@.K.K.K.K.K.K.K.K.K./ 0 5 5     MXPXPXFX7XlX7X7X7XlX|.&.lXIXIX  o 5 / o./ o.o.o.@.5 5 # 5     c.IXMXlXlXc.c.7X>X-X1XMXIXIXlX@.o.",
"K.K.K.K.K.K.K.K.K.K.0 5 5 #   2 VXIXIXlX7XlXFXFXIXIXlXc.8.FXPXO       O 2 2 2 5 2 0 2 5 #   O uXaX7X7X7X~ ~ ~ /.gXIXIXIXMX@.o.@.",
"K.K.K.K.K.K.K.K.K.z.5 5 5   O 1.IXIXZX7XgXFXIXIXIXIXFX|.Y 7XPXP.B O   O O o O 5 O O 5 5   O  .FX-XY 1.|.c.1.Y ~  .gXIXCX%.@.@.K.",
"K.K.K.K.K.K.K.K.K. .2 5 5     7XIXFX7XaXCXIXIXIXIXIXFXc.~ ~ MX>X#X|.o.2                     #XIXOXY ~ 1.k.c.1.~ Y FXIXwXo.@.K.K.",
"K.K.K.K.K.K.K.K.K.B 5 0     B lXIXaX7XlXPXIXIXIXIXFX|.P.~ ~ c.FXfX>X1X1Xi.Y  .5 B 2 2 O 5 5 lXIXOX~ Y ~ Y ~ ~ Y 1.FXIXwXo.@.K.K.",
"K.K.K.K.K.K.K.K.K.5 5 5     i.FXCXaX7XIXIXIXIXIXIX7X(.c.k.~ ~ 7XPXIXlX7X7X>X>X>X7X>X>X>X>X>XIXIXlX|.P.k.1.~ Y ~ c.HXIXaXo.o.K.K.",
"K.K.K.K.K.K.K.K.@.5 # 5   O 7XIXlX7XMXIXIXIXIXIXlX|.c./.c.~ ~ 8.IXIXIXIXVX7X(.(.|.#X7X>X7XfXIXIXlX1X>X>X>X>X(./.fXPXIXaXo.o.K.K.",
"K.K.K.K.K.K.U.O.0 0 # 5   5 FXIXlXqXMXIXIXIXIXIX|.c.(.P.k.~ ~ uXIXIXlX7Xc.i.i.c.c.i.c.c.c.|.|.7XMXFXMXlX7X>X7X-XMXPXPXMXo.o.K.K.",
"K.K.K.K.K.H.n 5 5 5 5 O   B FXIXlXqXMXIXIXIXIX1XW.P.c.k.~ ~ c.7XIXP.k.1.c.c.c.c.c.c.i.c.c.k.i.c.i.P.lXFXIXIXFXCXFXPXPXSXo.o.K.K.",
"K.U.K.K.o.5 5 5 5 5 5     1.IXIXqXqXCXPXIXIXlXc.c.W.c.1.~ ~ >XFXaXc.c.c.W.|.|.|.|.|.|.P.(.|.c.c.c.c.c.P.7XMXIXIXIXIXIXMXo.o.K.K.",
"o.[ [ n 5 5 5 5 5 #       7XIXIXc.R |.CXFXMXc.W.|.c.1.~ 1.|.lXHXc.c.P.|.#X|.|.|.|.|.|.|.|.|.|.|.W.c.c.c.1.$ 1.lXIXIXIXSXo.o.o.i.",
"1 5 5 5 5 # 5 0 5     # i.CXIXIX~ R R ~ k./.P.(.c.c.~ ~ c.aXIX>Xc.c.|.|.|.|.|.|.|.|.|.|.|.|.|.|.#X|.|.c.O.$ # #  .IXIXIXP.O   5 ",
"# 5 5 5 5 5 #       5 W.7XFXIXIXc.~ ~ ~ ~ ~ 1.c.c.~ ~ 8.1XIXlXi.c.W.|.|.|.|.|.|.|.|.|.|.|.|.|.|.|.|.|.c.Y k $ # $ IXIXIX7X .    ",
"                O  .>X>XfXlXgXCX7X7X(.8.1.~ ~ ~ ~ Y ~ OXVXPXMXx 0 Y 1.c./.|.|.|.|.|.|.|.|.|.|.|.c.~ H u k k u # $ IXIXIXFX7XB O ",
"        # 5 B B (.#X|.7X7X7XgX7X1.c.|.>X>X(.8.~ Y ~ |.fXPXPXVX(.$ $ u H S H R 1.c./.|.|.|.c.Y H S k S H k k k $ # IXIXIXIXlX|.2 ",
"O.c.P.|.>X>X|.>X|.|.gX7XlXlXlXc.~ ~ ~ 8.>X>X>X>X|.|.1XIXPXIXIX>Xc.$ $ $ $ = $ k k k H Y H k k k k k h h u = $ $ # IXIXIXPXPXlX#X",
"1X1X1X1X>XaXfXfXlX7XgXFXIXlXW.F.8.~ ~ Y VXFXlX7X#X1XCXIXPXPXIXSX1X1.# $ # $ $ $ # $ u u u k k k S u = $ # $ $ $ J IXIXIXIXPXPX7X",
"7XuX7XlXPXPXPXPXgX7XFXFX7Xc.(.c.(.c.&.Y lXPXPXPXSXCXIXaXW.W.1XlXCX|.|.c.k.Y k $ # # $ $ # # $ $ # # # # $ Y c.#X7XIXIXCXVXlXFXlX",
"uX7X/.~ 7XPXPXSXuXuXlX/.P.|.c.(.c.1.~ ~ 7XPXPXPXIXgXc.c.c.c.Y = k ~ #X1X>X>X>X>X|.c. .Y = # $ $ # $ H c.|.1X7X1X7XlX7X7XaXaX7X7X",
"lXlX#X~ ~ k.IXIX7Xc.1.c.P./.P.c.1.~ Y 8.MXPXIXaXc.c.c.c.W.c.u = $ = 7XFXMXlXaX>X|.>X>X>X1X|./.1.c.OX7XOX1XgXlXlXaX7XqXgXlXMXMXlX",
"IXIXfX8.~ ~ (.VX|.~ ~ ~ |.c.8.Y ~ ~ /.#XMXaXc.k.c.F.W.1XW.Y H h = $ F.IXPXPXIXIXFXFX#Xi.W.1X>X>X>X>XfXFXCXgXqXqXqXlXCXIXIXIXIXIX",
"IXaXc.|.1.~ /.FX>X|.~ Y &.&.~ Y 1.OX>X|.c.c.c.c.|.OX|.>X~ H h H = = O.IXIXIXIXIXMXP./     O B #XVXIXFXaXaX7XaXlXIXIXIXIXIXIXIXIX",
"/.c.W.c.1.~ k.PXIX>X(.Y ~ ~ &.c.>X|.k.k.c.c.|.|.#X|.|.c.h H H h = $ k IXIXIXgXK.o.@.5         U.IXIXlX7XaXMXFXIXIXIXIXIXIXIXIX7X",
"c.|.c.|.1.~ 8.PXPXVX>X(.~ 1.#X>X#Xk.c.c.#X|.>X>X#X1X|.k H h h 0 = = ^.IXCXK.o.o.o.o.5 5 2 O   #XIXFX7X7XIXPXPXPXIXIXIXIXIXlX(.c.",
"P.P.c.1.~ ~ &.PXPXPXVX>X/.>X>XuXP.c.P.#X>X|.|.|.|.c.Y k h H h $ = O.1X1X@.[ o.@.K.5 # 5 5     7XIX7X7XlXIXIXIXPXFXFXlX7X|.c.|.P.",
"/.8.~ ~ Y 1.#XPXIXIXIXlX>X7XIX/.c.c.c.c./.|.|.|.1.H h H h H = = h 7X#XO.[ @.K.K./ 5 5 5 5     lXIX8.~ 8.7X7X7X(.|.c.c.|.c.W.P.F.",
"~ ~ ~ &./.>X>XIX|.Y lXHXVXPXPX|.8.c.P.c.c.-Xc.H h k H h h u $ k |.|.@./ G.K.K.O.0 5 5 5 O   O MXIX7X~ ~ ~ &.8.c.c./.P.c.W.c.c.8.",
"Y ~ c.>X>X>X(.c.k $ x 7XPXPXPXaX1X#XR h 1.R h H H h H k u = $ c.W.@.@.@.K.K.G.5 5 5 # 5     c.IXIX7X>X/.~ Y ~ ~ c.c.1.1.~ Y ~ Y ",
"c.7X7X>X/.1.k.1.= $ $ $ #XPXPXVXlXh = = $ k k H h H u $ $ = c.W.@.@.@.K.K.K.n 5 5 5 #   O ^ aXIXIXFXaX>X7X/.~ Y Y ~ ~ Y ~ ~ ~ k.",
"7X#XP.k.8.c.c.~ k k $ # # 1XIXIXIX#Xk $ $ $ $ u k u $ $ h W.W.@.o.@.K.K.K.o.5 5 5 0 O   2 #XCXMXgX1XP.W.|.7X:Xc.&.1.k.c.|.>X>X>X",
"c.i.c.c.c./.|.H k k k # # CXIXIXFX#X#X|.1.k $ $ $ $ u 1.7X#X@.o.@.K.K.K.%.0 5 5 2 o     P.lX|.c.c.c.c.c.c.h c.-X>X>X>X>X>X>X7X7X",
"k.8.c.|.|.|.c.S k k = # h CXIXwXz.@.@.O.>X7XP.&.k h #X7X1X@.[ @.K.K.K.K.0 5 5 # o   O 1.aX7Xc.c.P.W.|.c.i.$ = = k.aXfXMXVXPXIXc.",
"i.|.|.|.|.|.~ k k k # # c.aXK.O./ @./ O 2 i.7X>X#X7X7XlX@.@.o.K.K.K.K./ 0 5 5 5 O   x >XlXc.c.|.|.|.|.|.c.k $ = Y PXPXPXPXPX#Xc.",
"|.|.|.|./.c.S k h u $ $ #XB 5 0 5 5 O       / lX7XlXFXgX@.o.K.K.K.K.[ 5 5 1 0 #   o #XMX|.c.c.-X1X1X|.|.R H h = $ FXIXIXPXaXi.c.",
"|.|.|.|.c.k S k h $ $ 1. .O O 2 5 5 5 5 O   2 CXIXIXIXU.[ @.K.K.K.G.5 5 1 0 #   O c.aX7Xc.c.|.|.|.|.|.|.h H h u $ #XIXIXMXi.c.c.",
"|.|.|.c.H k H h k $ $ |.5   # 5 5 # 5 o O     aXIXIXIX@.o.K.K.K.K.n 5 5 5 5      .>XFXc.c.#X|.-X|.-X|.1.H h h $ $ 7XIXCXc.c.P.|.",
"|.|.P.Y k H u h $ # k K.                      #XIXIXaXo.o.K.K.K.[ 5 # 5 5     5 >XCX|.c.c.#X-X|.-X|.|.Y h h k $ u CXIXP.i.c.|.|."
};
