/* XPM */
static char *result[] = {
/* columns rows colors chars-per-pixel */
"64 64 90 1 ",
"  c #9C7A4B",
". c #92754A",
"X c #93764C",
"o c #AF8C5D",
"O c #7A5931",
"+ c #563B1E",
"@ c #686867",
"# c #AB8652",
"$ c #614727",
"% c #7D623C",
"& c #8B8B89",
"* c #9D7B4C",
"= c #AA8551",
"- c #968060",
"; c #9E794B",
": c #A38354",
"> c #7E5E35",
", c #6B4A26",
"< c #956D3C",
"1 c #9B8666",
"2 c #857257",
"3 c #916A3A",
"4 c #A58555",
"5 c #8B8B8A",
"6 c #7F633D",
"7 c #976E3C",
"8 c #6F6F6E",
"9 c #7E623D",
"0 c #9F7C4C",
"q c #936B3B",
"w c #AC8652",
"e c #9C9B99",
"r c #896B42",
"t c #8A6B42",
"y c #C3C2BF",
"u c #9E7B4C",
"i c #89775C",
"p c #A58455",
"a c #846A44",
"s c #78664D",
"d c #B4915C",
"f c #A68C68",
"g c #857053",
"h c #B28F5C",
"j c #7C6B52",
"k c #897659",
"l c #6B5433",
"z c #C5C5C5",
"x c gray62",
"c c #6E5634",
"v c #9D8766",
"b c #BC9D6F",
"n c #BA9C6E",
"m c #A88350",
"M c #B28F5B",
"N c #B08D5B",
"B c #BFA071",
"V c #6D5534",
"C c #826943",
"Z c #8A785D",
"A c #AB936F",
"S c #AC8752",
"D c #8E724A",
"F c #8A7659",
"G c #706F6E",
"H c #795830",
"J c #90734A",
"K c #7D6C52",
"L c #856B45",
"P c #B4905D",
"I c #AD946F",
"U c #9C8766",
"Y c #76562F",
"T c #90744A",
"R c #886A41",
"E c #8C8B89",
"W c #A68656",
"Q c #9D7542",
"! c #8B6D42",
"~ c #6F5735",
"^ c #644B2A",
"/ c #7F552A",
"( c #B38F5F",
") c #865C2F",
"_ c #B8945F",
"` c #B6925D",
"' c #926837",
"] c #986F3D",
"[ c #C1A172",
"{ c #AE8853",
/* pixels */
"((((((((((((((((((((((((((((((((((((((((((((((((((((((((((((((((",
"((((((((((((((((((((((((((((((((((((((((((((((((((((((((((((((((",
"(([[[[[[[[[[[[[[[[[[[[[[[[[[[[[[[[[[[[[[[[[[[[[[[[[[[[[[[[[[[[((",
"(([[[[[[[[[[[[[[[[[[[[[[[[[[[[[[[[[[[[[[[[[[[[[[[[[[[[[[[[[[[[((",
"QQ{{{{{{{{{{{{{{{{{{{{{{{{{{{{{{{{{{{{{{{{{{{{{{{{{{{{{{{{{{{{QQ",
"QQ{{{{{{{{{{{{{{{{{{{{{{{{{{{{{{{{{{{{{{{{{{{{{{{{{{{{{{{{{{{{QQ",
"QQ{{{{````````````````````````````````````````````````````{{{{QQ",
"QQ{{{{`__________________________________________________`{{{{QQ",
"QQ{{{{`__________________________________________________`{{{{QQ",
"QQ{{{{````````````````````````````````````````````````````{{{{QQ",
"QQ{{{{{{{{{{{{{{{{{{{{{{{{{{{{{{{{{{{{{{{{{{{{{{{{{{{{{{{{{{{{QQ",
"QQ{{{{{{{{{{{{{{{{{{{{{{{{{{{{{{{{{{{{{{{{{{{{{{{{{{{{{{{{{{{{QQ",
"//''''''''''''''''''''''''''''''''''''''''''''''''''''''''''''//",
"//''''''''''''''''''''''''''''''''''''''''''''''''''''''''''''//",
"////////////////////////////////////////////////////////////////",
"////////////////////////////////////////////////////////////////",
"^^^^^^^^^^^^^^^^^^^^^^^^^^^^++++^^^^^^^^^^^^^^^^^^^^^^^^^^^^++++",
"^^^^^^^^^^^^^^^^^^^^^^^^^^^^++++^^^^^^^^^^^^^^^^^^^^^^^^^^^^++++",
"^^~~~~~~~~~~~~~~~~~~~~~~~~~~$$$$~~~~~~~~~~~~~~~~~~~~~~~~~~~~$$++",
"^^~~~~~Vlc~~~~~~~~~~~~~~~~~~$$$$~~~~~~~~~~~~~~~~~~~~~~~Vlc~~$$++",
">>!!!t6%%9r!!!!!!!!!!!!!!!!!OOOO!!!!!!!!!!!!!!!!!!!!!t6%%9r!OO,,",
">>!!t6%gs%9r!!!!!!!!!!!!!!!!OOOO!!!!!!!!!!!!!!!!!!!!t6%gs%9rOO,,",
">>!!6%ke8jCaT.............!!OOOO!!!!!!..............LCke8j%9HO,,",
">>!R%gex8GKaDXXXXXXXXXXXX.!!OOOO!!!!!!.XXXXXXXXXXXXJaFex88s%YO,,",
"QQ{m -&5@@Z4N____________`{{]]]]{{{{{{`____________h4v&5@@2 3]))",
"QQ{Su 1&@i::M`````````````{{]]]]{{{{{{`````````````dp:1&@i  <]))",
"QQ{{#* -2  ={{{{{{{{{{{{{{{{]]]]{{{{{{{{{{{{{{{{{{{{#* -2  =]]))",
"QQ{{{#*   ={{{{{{{{{{{{{{{{{]]]]{{{{{{{{{{{{{{{{{{{{{#*   ={]]))",
"))]]]]7q3<]]]]]]]]]]]]]]]]]]]]]]]]]]]]]]]]]]]]]]]]]]]]7q3<]]]]))",
"))]]]]]]]]]]]]]]]]]]]]]]]]]]]]]]]]]]]]]]]]]]]]]]]]]]]]]]]]]]]]))",
"))]]]]]]]]]]]]]]]]]]]]]]]]]]]]]]]]]]]]]]]]]]]]]]]]]]]]]]]]]]]]))",
"))]]]]]]]]]]]]]]]]]]]]]]]]]]]]]]]]]]]]]]]]]]]]]]]]]]]]]]]]]]]]))",
"(([[[[[[[[[[[[[[[[[[[[[[[[[[[[[[[[[[[[[[[[[[[[[[[[[[[[[[[[[[[[((",
"(([[[[[[[[[[[[[[[[[[[[[[[[[[[[[[[[[[[[[[[[[[[[[[[[[[[[[[[[[[[[((",
"(([[[[[[[[[[[[[[[[[[[[[[[[[[[[[[[[[[[[[[[[[[[[[[[[[[[[[[[[[[[[((",
"(([[[[[[[[[[[[[[[[[[[[[[[[[[[[[[[[[[[[[[[[[[[[[[[[[[[[[[[[[[[[((",
"QQ{{{{{{{{{{{{{{{{{{{{{{{{{{{{{{{{{{{{{{{{{{{{{{{{{{{{{{{{{{{{QQ",
"QQ{{{{{{{{{{{{{{{{{{{{{{{{{{{{{{{{{{{{{{{{{{{{{{{{{{{{{{{{{{{{QQ",
"QQ{{{{````````````````````````````````````````````````````{{{{QQ",
"QQ{{{{`__________________________________________________`{{{{QQ",
"QQ{{{{`__________________________________________________`{{{{QQ",
"QQ{{{{````````````````````````````````````````````````````{{{{QQ",
"QQ{{{{{{{{{{{{{{{{{{{{{{{{{{{{{{{{{{{{{{{{{{{{{{{{{{{{{{{{{{{{QQ",
"QQ{{{{{{{{{{{{{{{{{{{{{{{{{{{{{{{{{{{{{{{{{{{{{{{{{{{{{{{{{{{{QQ",
"//''''''''''''''''''''''''''''''''''''''''''''''''''''''''''''//",
"//''''''''''''''''''''''''''''''''''''''''''''''''''''''''''''//",
"//''''''''''''''''''''''''''''''''''''''''''''''''''''''''''''//",
"//''''''''''''''''''''''''''''''''''''''''''''''''''''''''''''//",
"(([[[[[[[[[[[[[[[[[[[[[[[[[[oooo[[[[[[[[[[[[[[[[[[[[[[[[[[[[oo;;",
"(([[[[[[[[[[[[[[[[[[[[[[[[[[oooo[[[[[[[[[[[[[[[[[[[[[[[[[[[[oo;;",
"(([[[[[[[[[[[[[[[[[[[[[[[[[[oooo[[[[[[[[[[[[[[[[[[[[[[[[[[[[oo;;",
"(([[[[[bnB[[[[[[[[[[[[[[[[[[oooo[[[[[[[[[[[[[[[[[[[[[[[bnB[[oo;;",
"QQ{{{w0  u#{{{{{{{{{{{{{{{{{]]]]{{{{{{{{{{{{{{{{{{{{{w0  u#{]]))",
"QQ{{w0 f- *#{{{{{{{{{{{{{{{{]]]]{{{{{{{{{{{{{{{{{{{{w0 f- *#]]))",
"QQ{{0 Ay&1:pd`````````````{{]]]]{{{{{{``````````````W:Ay&1 *7]))",
"QQ{= fyz5EU4h____________`{{]]]]{{{{{{`____________P4Iyz5&- q]))",
"QQ{m -&5@@Z4N____________`{{]]]]{{{{{{`____________h4v&5@@2 3]))",
"QQ{Su 1&@i::M`````````````{{]]]]{{{{{{`````````````dp:1&@i  <]))",
"QQ{{#* -2  ={{{{{{{{{{{{{{{{]]]]{{{{{{{{{{{{{{{{{{{{#* -2  =]]))",
"QQ{{{#*   ={{{{{{{{{{{{{{{{{]]]]{{{{{{{{{{{{{{{{{{{{{#*   ={]]))",
"))]]]]7q3<]]]]]]]]]]]]]]]]]]]]]]]]]]]]]]]]]]]]]]]]]]]]7q3<]]]]))",
"))]]]]]]]]]]]]]]]]]]]]]]]]]]]]]]]]]]]]]]]]]]]]]]]]]]]]]]]]]]]]))",
"))))))))))))))))))))))))))))))))))))))))))))))))))))))))))))))))",
"))))))))))))))))))))))))))))))))))))))))))))))))))))))))))))))))"
};
