/* XPM */
static char *ea37eaa47fb643fabc5d4461377a3aabKeP0mV6Wky6wdi0x[] = {
/* columns rows colors chars-per-pixel */
"10 10 39 1 ",
"  c None",
". c #007F36",
"X c #008035",
"o c #008036",
"O c #008037",
"+ c #018037",
"@ c #008137",
"# c #018137",
"$ c #028037",
"% c #028137",
"& c #028138",
"* c #038138",
"= c #008738",
"- c #008639",
"; c #008739",
": c #07893D",
"> c #068A3D",
", c #078A3D",
"< c #078B3D",
"1 c #078C3D",
"2 c #078C3E",
"3 c #11823D",
"4 c #12823D",
"5 c #12833D",
"6 c #13833D",
"7 c #12833E",
"8 c #14833E",
"9 c #15833F",
"0 c #15843F",
"q c #1A833F",
"w c #1C833F",
"e c #198340",
"r c #1B8340",
"t c #1C8341",
"y c #1C8441",
"u c #208343",
"i c #208442",
"p c #218443",
"a c #238443",
/* pixels */
"   reer   ",
" u<;XX;<a ",
" <X&&&&.< ",
"y;&X&.&.;r",
"3X&..&.&X3",
"3XX&&.X&X3",
"r;&&&&&&;r",
" 2X&.X&.< ",
" a2;XX;<a ",
"   w03y   "
};
